<svg xmlns="http://www.w3.org/2000/svg"  viewBox="0 0 100 100" width="100px" height="100px"><path fill="#c7ede6" d="M87.215,56.71C88.35,54.555,89,52.105,89,49.5c0-6.621-4.159-12.257-10.001-14.478 C78.999,35.015,79,35.008,79,35c0-11.598-9.402-21-21-21c-9.784,0-17.981,6.701-20.313,15.757C36.211,29.272,34.638,29,33,29 c-7.692,0-14.023,5.793-14.89,13.252C12.906,43.353,9,47.969,9,53.5C9,59.851,14.149,65,20.5,65c0.177,0,0.352-0.012,0.526-0.022 C21.022,65.153,21,65.324,21,65.5C21,76.822,30.178,86,41.5,86c6.437,0,12.175-2.972,15.934-7.614C59.612,80.611,62.64,82,66,82 c4.65,0,8.674-2.65,10.666-6.518C77.718,75.817,78.837,76,80,76c6.075,0,11-4.925,11-11C91,61.689,89.53,58.727,87.215,56.71z"/><path fill="#fff" d="M15.405,51H5.5C5.224,51,5,50.776,5,50.5S5.224,50,5.5,50h9.905c0.276,0,0.5,0.224,0.5,0.5 S15.682,51,15.405,51z"/><path fill="#fff" d="M18.5,51h-1c-0.276,0-0.5-0.224-0.5-0.5s0.224-0.5,0.5-0.5h1c0.276,0,0.5,0.224,0.5,0.5 S18.777,51,18.5,51z"/><path fill="#fff" d="M23.491,53H14.5c-0.276,0-0.5-0.224-0.5-0.5s0.224-0.5,0.5-0.5h8.991c0.276,0,0.5,0.224,0.5,0.5 S23.767,53,23.491,53z"/><path fill="#fff" d="M12.5,53h-1c-0.276,0-0.5-0.224-0.5-0.5s0.224-0.5,0.5-0.5h1c0.276,0,0.5,0.224,0.5,0.5 S12.777,53,12.5,53z"/><path fill="#fff" d="M9.5,53h-2C7.224,53,7,52.776,7,52.5S7.224,52,7.5,52h2c0.276,0,0.5,0.224,0.5,0.5S9.777,53,9.5,53 z"/><path fill="#fff" d="M15.5,55h-2c-0.276,0-0.5-0.224-0.5-0.5s0.224-0.5,0.5-0.5h2c0.276,0,0.5,0.224,0.5,0.5 S15.776,55,15.5,55z"/><path fill="#fff" d="M18.5,46c-0.177,0-0.823,0-1,0c-0.276,0-0.5,0.224-0.5,0.5c0,0.276,0.224,0.5,0.5,0.5 c0.177,0,0.823,0,1,0c0.276,0,0.5-0.224,0.5-0.5C19,46.224,18.776,46,18.5,46z"/><path fill="#fff" d="M18.5,48c-0.177,0-4.823,0-5,0c-0.276,0-0.5,0.224-0.5,0.5c0,0.276,0.224,0.5,0.5,0.5 c0.177,0,4.823,0,5,0c0.276,0,0.5-0.224,0.5-0.5C19,48.224,18.776,48,18.5,48z"/><path fill="#fff" d="M23.5,50c-0.177,0-2.823,0-3,0c-0.276,0-0.5,0.224-0.5,0.5c0,0.276,0.224,0.5,0.5,0.5 c0.177,0,2.823,0,3,0c0.276,0,0.5-0.224,0.5-0.5C24,50.224,23.776,50,23.5,50z"/><g><path fill="#fff" d="M84.5,65h-10c-0.276,0-0.5-0.224-0.5-0.5s0.224-0.5,0.5-0.5h10c0.276,0,0.5,0.224,0.5,0.5 S84.776,65,84.5,65z"/><path fill="#fff" d="M88.5,65h-2c-0.276,0-0.5-0.224-0.5-0.5s0.224-0.5,0.5-0.5h2c0.276,0,0.5,0.224,0.5,0.5 S88.776,65,88.5,65z"/><path fill="#fff" d="M93.5,67h-10c-0.276,0-0.5-0.224-0.5-0.5s0.224-0.5,0.5-0.5h10c0.276,0,0.5,0.224,0.5,0.5 S93.777,67,93.5,67z"/><path fill="#fff" d="M81.5,67h-1c-0.276,0-0.5-0.224-0.5-0.5s0.224-0.5,0.5-0.5h1c0.276,0,0.5,0.224,0.5,0.5 S81.776,67,81.5,67z"/><path fill="#fff" d="M78.375,67H76.5c-0.276,0-0.5-0.224-0.5-0.5s0.224-0.5,0.5-0.5h1.875c0.276,0,0.5,0.224,0.5,0.5 S78.651,67,78.375,67z"/><path fill="#fff" d="M87.5,63h-5c-0.276,0-0.5-0.224-0.5-0.5s0.224-0.5,0.5-0.5h5c0.276,0,0.5,0.224,0.5,0.5 S87.777,63,87.5,63z"/><path fill="#fff" d="M84.5,69h-2c-0.276,0-0.5-0.224-0.5-0.5s0.224-0.5,0.5-0.5h2c0.276,0,0.5,0.224,0.5,0.5 S84.776,69,84.5,69z"/></g><g><path fill="#fdfcef" d="M33.875,39.5c0,0,3.64,0,6.125,0s4.5-2.015,4.5-4.5c0-2.333-1.782-4.229-4.055-4.455 C40.467,30.364,40.5,30.187,40.5,30c0-2.485-2.015-4.5-4.5-4.5c-1.438,0-2.703,0.686-3.527,1.736 C32.333,24.6,30.171,22.5,27.5,22.5c-2.761,0-5,2.239-5,5c0,0.446,0.077,0.87,0.187,1.282C22.045,28.005,21.087,27.5,20,27.5 c-1.781,0-3.234,1.335-3.455,3.055C16.364,30.533,16.187,30.5,16,30.5c-2.485,0-4.5,2.015-4.5,4.5s2.015,4.5,4.5,4.5s9.5,0,9.5,0 h5.375V40h3V39.5z"/><path fill="#472b29" d="M27.5,22c-3.033,0-5.5,2.467-5.5,5.5c0,0.016,0,0.031,0,0.047C21.398,27.192,20.71,27,20,27 c-1.831,0-3.411,1.261-3.858,3.005C16.095,30.002,16.048,30,16,30c-2.757,0-5,2.243-5,5s2.243,5,5,5h14.875 c0.276,0,0.5-0.224,0.5-0.5c0-0.276-0.224-0.5-0.5-0.5H16c-2.206,0-4-1.794-4-4c0-2.206,1.794-4,4-4 c0.117,0,0.23,0.017,0.343,0.032l0.141,0.019c0.021,0.003,0.041,0.004,0.062,0.004c0.246,0,0.462-0.185,0.495-0.437 C17.232,29.125,18.504,28,20,28c0.885,0,1.723,0.401,2.301,1.1c0.098,0.118,0.241,0.182,0.386,0.182 c0.078,0,0.156-0.018,0.228-0.056c0.209-0.107,0.314-0.346,0.254-0.573C23.054,28.218,23,27.852,23,27.5c0-2.481,2.019-4.5,4.5-4.5 c2.381,0,4.347,1.872,4.474,4.263c0.011,0.208,0.15,0.387,0.349,0.45c0.05,0.016,0.101,0.024,0.152,0.024 c0.15,0,0.296-0.069,0.392-0.192C33.638,26.563,34.779,26,36,26c2.206,0,4,1.794,4,4c0,0.117-0.017,0.23-0.032,0.343l-0.019,0.141 c-0.016,0.134,0.022,0.268,0.106,0.373s0.207,0.172,0.34,0.185C42.451,31.247,44,32.949,44,35c0,2.206-1.794,4-4,4h-6.125 c-0.276,0-0.5,0.224-0.5,0.5c0,0.276,0.224,0.5,0.5,0.5H40c2.757,0,5-2.243,5-5c0-2.397-1.689-4.413-4.003-4.877 C40.999,30.082,41,30.041,41,30c0-2.757-2.243-5-5-5c-1.176,0-2.293,0.416-3.183,1.164C32.219,23.76,30.055,22,27.5,22L27.5,22z"/><path fill="#472b29" d="M26,29c-1.403,0-2.609,0.999-2.913,2.341C22.72,31.119,22.301,31,21.875,31 c-1.202,0-2.198,0.897-2.353,2.068C19.319,33.022,19.126,33,18.937,33c-1.529,0-2.811,1.2-2.918,2.732 C16.01,35.87,16.114,35.99,16.251,36c0.006,0,0.012,0,0.018,0c0.13,0,0.24-0.101,0.249-0.232c0.089-1.271,1.151-2.268,2.419-2.268 c0.229,0,0.47,0.042,0.738,0.127c0.022,0.007,0.045,0.01,0.067,0.01c0.055,0,0.11-0.02,0.156-0.054 C19.962,33.537,20,33.455,20,33.375c0-1.034,0.841-1.875,1.875-1.875c0.447,0,0.885,0.168,1.231,0.473 c0.047,0.041,0.106,0.063,0.165,0.063c0.032,0,0.063-0.006,0.093-0.019c0.088-0.035,0.148-0.117,0.155-0.212 C23.623,30.512,24.712,29.5,26,29.5c0.208,0,0.425,0.034,0.682,0.107c0.023,0.007,0.047,0.01,0.07,0.01 c0.109,0,0.207-0.073,0.239-0.182c0.038-0.133-0.039-0.271-0.172-0.309C26.517,29.04,26.256,29,26,29L26,29z"/></g><g><path fill="#fdfcef" d="M84.5,47.5c0,0,1.567,0,3.5,0s3.5-1.567,3.5-3.5c0-1.781-1.335-3.234-3.055-3.455 C88.473,40.366,88.5,40.187,88.5,40c0-1.933-1.567-3.5-3.5-3.5c-1.032,0-1.95,0.455-2.59,1.165 c-0.384-1.808-1.987-3.165-3.91-3.165c-2.209,0-4,1.791-4,4c0,0.191,0.03,0.374,0.056,0.558C74.128,38.714,73.592,38.5,73,38.5 c-1.228,0-2.245,0.887-2.455,2.055C70.366,40.527,70.187,40.5,70,40.5c-1.933,0-3.5,1.567-3.5,3.5s1.567,3.5,3.5,3.5s7.5,0,7.5,0 V48h7V47.5z"/><path fill="#472b29" d="M86.25,43C86.112,43,86,42.888,86,42.75c0-1.223,0.995-2.218,2.218-2.218 c0.034,0.009,0.737-0.001,1.244,0.136c0.133,0.036,0.212,0.173,0.176,0.306c-0.036,0.134-0.173,0.213-0.306,0.176 c-0.444-0.12-1.1-0.12-1.113-0.118c-0.948,0-1.719,0.771-1.719,1.718C86.5,42.888,86.388,43,86.25,43z"/><circle cx="79.5" cy="47.5" r=".5" fill="#472b29"/><path fill="#472b29" d="M88,48h-3.5c-0.276,0-0.5-0.224-0.5-0.5s0.224-0.5,0.5-0.5H88c1.654,0,3-1.346,3-3 c0-1.496-1.125-2.768-2.618-2.959c-0.134-0.018-0.255-0.088-0.336-0.196s-0.115-0.244-0.094-0.377C87.975,40.314,88,40.16,88,40 c0-1.654-1.346-3-3-3c-0.85,0-1.638,0.355-2.219,1c-0.125,0.139-0.321,0.198-0.5,0.148c-0.182-0.049-0.321-0.195-0.36-0.379 C81.58,36.165,80.141,35,78.5,35c-1.93,0-3.5,1.57-3.5,3.5c0,0.143,0.021,0.28,0.041,0.418c0.029,0.203-0.063,0.438-0.242,0.54 s-0.396,0.118-0.556-0.01C73.878,39.155,73.449,39,73,39c-0.966,0-1.792,0.691-1.963,1.644c-0.048,0.267-0.296,0.446-0.569,0.405 C70.314,41.025,70.16,41,70,41c-1.654,0-3,1.346-3,3s1.346,3,3,3h7.5c0.276,0,0.5,0.224,0.5,0.5S77.776,48,77.5,48H70 c-2.206,0-4-1.794-4-4s1.794-4,4-4c0.059,0,0.116,0.002,0.174,0.006C70.588,38.82,71.711,38,73,38c0.349,0,0.689,0.061,1.011,0.18 C74.176,35.847,76.126,34,78.5,34c1.831,0,3.466,1.127,4.153,2.774C83.333,36.276,84.155,36,85,36c2.206,0,4,1.794,4,4 c0,0.048-0.001,0.095-0.004,0.142C90.739,40.59,92,42.169,92,44C92,46.206,90.206,48,88,48z"/><path fill="#472b29" d="M82.5,47c-0.159,0-0.841,0-1,0c-0.276,0-0.5,0.224-0.5,0.5s0.224,0.5,0.5,0.5c0.159,0,0.841,0,1,0 c0.276,0,0.5-0.224,0.5-0.5S82.776,47,82.5,47z"/></g><g><path fill="#68c8d0" d="M25.375,50.625l3.25,16l32.75,7l7.25-16.75L72.75,24.75L58.5,23.5L57,42.375 c-0.052,0.572-0.382,0.812-0.5,0.25l-3.25-17.25l-14,3.5L43,46.75L25.375,50.625z"/></g><path fill="#472b29" d="M59.125,24l13,1L68,57l-7,16l-32-7l-2.875-15l16.763-3.423c0.544-0.111,0.893-0.644,0.778-1.188	L40,29.125L53,26l3.388,18.558c0.056,0.268,0.272,0.397,0.487,0.397c0.236,0,0.473-0.156,0.5-0.455L59.125,24 M59.124,22.6	c-0.72,0-1.331,0.552-1.393,1.281l-1.177,13.788l-2.176-11.921c-0.069-0.378-0.291-0.712-0.613-0.922	C53.535,24.677,53.269,24.6,53,24.6c-0.109,0-0.219,0.013-0.327,0.039l-13,3.125c-0.738,0.177-1.2,0.91-1.042,1.652l3.582,16.87	l-16.368,3.343c-0.751,0.153-1.239,0.882-1.095,1.635l2.875,15c0.105,0.55,0.529,0.984,1.076,1.104l32,7	c0.1,0.022,0.201,0.032,0.3,0.032c0.546,0,1.056-0.321,1.282-0.839l7-16c0.053-0.122,0.089-0.25,0.106-0.382l4.125-32	c0.049-0.381-0.06-0.765-0.302-1.062c-0.242-0.298-0.596-0.483-0.979-0.512l-13-1C59.196,22.601,59.16,22.6,59.124,22.6L59.124,22.6	z"/><path fill="#472b29" d="M59.531,70.619c-0.067,0-0.135-0.014-0.2-0.042c-0.253-0.11-0.369-0.405-0.258-0.658L65.08,56.19	l2.031-15.754c0.036-0.273,0.281-0.465,0.56-0.433c0.274,0.035,0.467,0.286,0.432,0.56l-2.04,15.825	c-0.006,0.048-0.019,0.094-0.038,0.137l-6.035,13.794C59.907,70.507,59.724,70.619,59.531,70.619z"/><path fill="#472b29" d="M67.994,38c-0.021,0-0.042-0.001-0.064-0.004c-0.274-0.035-0.467-0.286-0.432-0.56l0.645-5	c0.036-0.274,0.283-0.468,0.56-0.433c0.274,0.035,0.467,0.286,0.432,0.56l-0.645,5C68.457,37.816,68.242,38,67.994,38z"/><path fill="#472b29" d="M69.025,30c-0.021,0-0.042-0.001-0.064-0.004c-0.274-0.035-0.467-0.286-0.432-0.56l0.285-2.209	c0.036-0.274,0.281-0.464,0.56-0.433c0.274,0.035,0.467,0.286,0.432,0.56l-0.285,2.209C69.488,29.816,69.273,30,69.025,30z"/><g><circle cx="49.5" cy="53.5" r="2" fill="#fdfcef"/><path fill="#472b29" d="M49.5,51.5c1.105,0,2,0.895,2,2s-0.895,2-2,2s-2-0.895-2-2S48.395,51.5,49.5,51.5 M49.5,51 c-1.378,0-2.5,1.122-2.5,2.5s1.122,2.5,2.5,2.5s2.5-1.122,2.5-2.5S50.878,51,49.5,51L49.5,51z"/></g><g><circle cx="58.5" cy="54.625" r="2" fill="#fdfcef"/><path fill="#472b29" d="M58.5,52.625c1.105,0,2,0.895,2,2s-0.895,2-2,2s-2-0.895-2-2S57.395,52.625,58.5,52.625 M58.5,52.125c-1.378,0-2.5,1.122-2.5,2.5s1.122,2.5,2.5,2.5s2.5-1.122,2.5-2.5S59.878,52.125,58.5,52.125L58.5,52.125z"/></g></svg>